<svg version="1.1" xmlns="http://www.w3.org/2000/svg" viewBox="0 0 601.7390414577908 503" width="601.7390414577908" height="503">
  <!-- svg-source:excalidraw -->
  
  <defs>
    <style>
      @font-face {
        font-family: "Virgil";
        src: url("https://excalidraw.com/Virgil.woff2");
      }
      @font-face {
        font-family: "Cascadia";
        src: url("https://excalidraw.com/Cascadia.woff2");
      }
    </style>
  </defs>
  <rect x="0" y="0" width="601.7390414577908" height="503" fill="#ffffff"></rect><g stroke-linecap="round" transform="translate(15 82) rotate(0 287.5 186)"><path d="M0.67 0.54 C115.22 -1.75, 231.39 -0.57, 574.78 0.02 M-0.19 0.26 C170.65 0.7, 340.51 0.73, 575.37 -0.09 M574.28 -0.1 C576.86 109.93, 575.87 218.73, 575.96 371.41 M574.51 0.24 C577.44 132.95, 576.85 266.72, 575.47 372.12 M575.31 371.92 C357.42 372.8, 142.13 372.89, 0.23 372.54 M574.62 372.19 C439.6 371.75, 304.14 371.4, -0.13 372.3 M0.26 371.62 C0.82 257.29, 0.04 141.23, 0.67 0.84 M0.5 371.64 C1.17 295.02, 1.04 217.48, -0.55 -0.28" stroke="#000000" stroke-width="1" fill="none"></path></g><g stroke-linecap="round"><g transform="translate(16 154) rotate(0 286.2700799296424 -0.7435522512719217)"><path d="M0.11 -0.02 C95.81 -0.13, 478.25 0.12, 573.84 0.25 M-1.3 -1.08 C94.27 -1.64, 477.14 -1.72, 572.8 -1.74" stroke="#000000" stroke-width="1" fill="none"></path></g></g><g stroke-linecap="round"><g transform="translate(16 396) rotate(0 287.3229409467429 -0.39086800217626205)"><path d="M-0.65 -0.31 C95.2 -0.44, 479.28 -0.39, 575.29 -0.52 M1.21 -1.52 C96.92 -1.51, 478.88 0.55, 574.5 0.74" stroke="#000000" stroke-width="1" fill="none"></path></g></g><g stroke-linecap="round"><g transform="translate(16 411) rotate(0 287.80640111537645 0.33526870359889926)"><path d="M0.87 0.82 C96.4 0.93, 477.66 1.35, 573.36 1.07 M-0.13 0.21 C95.78 -0.04, 479.9 -0.46, 575.74 -0.49" stroke="#000000" stroke-width="1" fill="none"></path></g></g><g transform="translate(25 91) rotate(0 57 12.5)"><text x="0" y="18" font-family="Virgil, Segoe UI Emoji" font-size="20px" fill="#000000" text-anchor="start" style="white-space: pre;" direction="ltr">1. Epithelium</text></g><g transform="translate(22 160) rotate(0 49.5 12.5)"><text x="0" y="18" font-family="Virgil, Segoe UI Emoji" font-size="20px" fill="#000000" text-anchor="start" style="white-space: pre;" direction="ltr">2. Stroma</text></g><g transform="translate(23 395.3125) rotate(0 94.5 9.84375)"><text x="0" y="13.6875" font-family="Virgil, Segoe UI Emoji" font-size="15.750000000000018px" fill="#000000" text-anchor="start" style="white-space: pre;" direction="ltr">3. Descemet's Membrane</text></g><g transform="translate(22 424) rotate(0 69.5 12.5)"><text x="0" y="18" font-family="Virgil, Segoe UI Emoji" font-size="20px" fill="#000000" text-anchor="start" style="white-space: pre;" direction="ltr">4. Endothelium</text></g><g transform="translate(224 468) rotate(0 183 12.5)"><text x="0" y="18" font-family="Virgil, Segoe UI Emoji" font-size="20px" fill="#000000" text-anchor="start" style="white-space: pre;" direction="ltr">Inside the eyeball (Anterior Chamber)</text></g><g transform="translate(303 52) rotate(0 143.5 12.5)"><text x="0" y="18" font-family="Virgil, Segoe UI Emoji" font-size="20px" fill="#000000" text-anchor="start" style="white-space: pre;" direction="ltr">The "Outside" (tear film, air)</text></g><g transform="translate(10 10) rotate(0 234 18)"><text x="0" y="25.000000000000014" font-family="Virgil, Segoe UI Emoji" font-size="28.800000000000008px" fill="#000000" text-anchor="start" style="white-space: pre;" direction="ltr">THE 4 LAYERS OF THE CORNEA</text></g><g transform="translate(15 39.35000000000002) rotate(0 126.5 6.324999999999989)"><text x="0" y="8.650000000000002" font-family="Virgil, Segoe UI Emoji" font-size="10.12px" fill="#000000" text-anchor="start" style="white-space: pre;" direction="ltr">(not drawn to scale with respect to relative size)</text></g></svg>