<svg version="1.1" xmlns="http://www.w3.org/2000/svg" viewBox="0 0 601.7390414577908 503" width="601.7390414577908" height="503">
  <!-- svg-source:excalidraw -->
  
  <defs>
    <style>
      @font-face {
        font-family: "Virgil";
        src: url("https://excalidraw.com/Virgil.woff2");
      }
      @font-face {
        font-family: "Cascadia";
        src: url("https://excalidraw.com/Cascadia.woff2");
      }
    </style>
  </defs>
  <rect x="0" y="0" width="601.7390414577908" height="503" fill="#ffffff"></rect><g stroke-linecap="round" transform="translate(15 82) rotate(0 287.5 186)"><path d="M0.67 0.54 C115.22 -1.75, 231.39 -0.57, 574.78 0.02 M-0.19 0.26 C170.65 0.7, 340.51 0.73, 575.37 -0.09 M574.28 -0.1 C576.86 109.93, 575.87 218.73, 575.96 371.41 M574.51 0.24 C577.44 132.95, 576.85 266.72, 575.47 372.12 M575.31 371.92 C357.42 372.8, 142.13 372.89, 0.23 372.54 M574.62 372.19 C439.6 371.75, 304.14 371.4, -0.13 372.3 M0.26 371.62 C0.82 257.29, 0.04 141.23, 0.67 0.84 M0.5 371.64 C1.17 295.02, 1.04 217.48, -0.55 -0.28" stroke="#000000" stroke-width="1" fill="none"></path></g><g stroke-linecap="round"><g transform="translate(16 154) rotate(0 286.2700799296424 -0.7435522512719217)"><path d="M0.11 -0.02 C95.81 -0.13, 478.25 0.12, 573.84 0.25 M-1.3 -1.08 C94.27 -1.64, 477.14 -1.72, 572.8 -1.74" stroke="#000000" stroke-width="1" fill="none"></path></g></g><g stroke-linecap="round"><g transform="translate(16 396) rotate(0 287.3229409467429 -0.39086800217626205)"><path d="M-0.65 -0.31 C95.2 -0.44, 479.28 -0.39, 575.29 -0.52 M1.21 -1.52 C96.92 -1.51, 478.88 0.55, 574.5 0.74" stroke="#000000" stroke-width="1" fill="none"></path></g></g><g stroke-linecap="round"><g transform="translate(16 411) rotate(0 287.80640111537645 0.33526870359889926)"><path d="M0.87 0.82 C96.4 0.93, 477.66 1.35, 573.36 1.07 M-0.13 0.21 C95.78 -0.04, 479.9 -0.46, 575.74 -0.49" stroke="#000000" stroke-width="1" fill="none"></path></g></g><g transform="translate(25 91) rotate(0 57 12.5)"><text x="0" y="18" font-family="Virgil, Segoe UI Emoji" font-size="20px" fill="#000000" text-anchor="start" style="white-space: pre;" direction="ltr">1. Epithelium</text></g><g transform="translate(22 160) rotate(0 49.5 12.5)"><text x="0" y="18" font-family="Virgil, Segoe UI Emoji" font-size="20px" fill="#000000" text-anchor="start" style="white-space: pre;" direction="ltr">2. Stroma</text></g><g transform="translate(23 395.3125) rotate(0 94.5 9.84375)"><text x="0" y="13.6875" font-family="Virgil, Segoe UI Emoji" font-size="15.750000000000018px" fill="#000000" text-anchor="start" style="white-space: pre;" direction="ltr">3. Descemet's Membrane</text></g><g transform="translate(22 424) rotate(0 69.5 12.5)"><text x="0" y="18" font-family="Virgil, Segoe UI Emoji" font-size="20px" fill="#000000" text-anchor="start" style="white-space: pre;" direction="ltr">4. Endothelium</text></g><g transform="translate(224 468) rotate(0 183 12.5)"><text x="0" y="18" font-family="Virgil, Segoe UI Emoji" font-size="20px" fill="#000000" text-anchor="start" style="white-space: pre;" direction="ltr">Inside the eyeball (Anterior Chamber)</text></g><g transform="translate(303 52) rotate(0 143.5 12.5)"><text x="0" y="18" font-family="Virgil, Segoe UI Emoji" font-size="20px" fill="#000000" text-anchor="start" style="white-space: pre;" direction="ltr">The "Outside" (tear film, air)</text></g><g transform="translate(10 10) rotate(0 185 18.5)"><text x="0" y="26" font-family="Virgil, Segoe UI Emoji" font-size="28.800000000000008px" fill="#000000" text-anchor="start" style="white-space: pre;" direction="ltr">Layers that uptake stain</text></g><g transform="translate(15 46.35000000000002) rotate(0 126.5 6.324999999999989)"><text x="0" y="8.650000000000002" font-family="Virgil, Segoe UI Emoji" font-size="10.12px" fill="#000000" text-anchor="start" style="white-space: pre;" direction="ltr">(not drawn to scale with respect to relative size)</text></g><g stroke-linecap="round" transform="translate(20 157) rotate(0 283.5 116.5)"><path d="M0 0 C0 0, 0 0, 0 0 M0 0 C0 0, 0 0, 0 0 M-0.82 6.4 C0.33 4.96, 3.14 3.28, 4.38 -0.39 M-0.6 6.6 C1.25 4.25, 3.23 2.66, 4.82 0.58 M0.7 10.69 C1.38 10.65, 3.11 7.8, 12.07 -0.79 M-0.51 12.55 C3.44 8.31, 7.06 4.42, 10.01 -0.59 M-1.98 19.38 C4.52 11.03, 7.89 7.51, 16.33 0.77 M-1.08 18.7 C4.73 13.39, 11 7.28, 14.66 -0.49 M1.63 23.67 C8.5 14.43, 16.34 8.27, 22.71 -1.34 M-0.23 24.6 C8.42 13.98, 17.97 5.34, 20.34 0.47 M-1.63 30.14 C7.76 25.28, 10.54 17.03, 25.85 1.55 M0.86 30.63 C9.24 19.57, 20.72 8.01, 26.78 -0.5 M-2.19 38.83 C5.69 28.9, 13.13 19.79, 33.35 1.87 M0.48 36.04 C10.37 25.68, 21.64 13.3, 32.4 -0.9 M-0.34 40.87 C12.52 27.47, 25.24 11.38, 36.18 -0.66 M-0.85 41.97 C13.99 26.81, 28.56 11.79, 36.83 0.59 M-0.78 50.44 C12.55 35.06, 21.98 23.78, 43.26 -1.36 M-0.54 49.4 C13.98 32.34, 30.93 14.91, 42.92 0.76 M1.17 55.17 C20.84 32.37, 39.02 12.21, 47.51 1.12 M-0.49 54.5 C19 32.9, 37.31 12.03, 47.43 -0.48 M1.75 59.87 C19.66 41.18, 37.18 19.55, 52.39 -1.55 M-0.5 60.35 C18.42 40.53, 35.19 19.94, 53.02 0.56 M-1.43 68.92 C20 44.71, 39.02 23.64, 58.03 0.35 M-0.8 68.29 C20.84 42.31, 41.54 20.35, 58.94 1.03 M0 74.21 C13.51 58.26, 24.7 43.68, 63.71 0.23 M-0.22 73.83 C24.55 44.35, 50.1 17.25, 63.05 0.14 M0.51 81.15 C20.61 54.49, 45.26 27.96, 69.98 -1.05 M0.71 79.63 C21.74 51.69, 46.47 26.54, 68.45 0.88 M0.58 85 C23.89 56.24, 47.29 31.84, 73.22 -1.6 M0.19 85.79 C20.11 61.58, 38.95 38.18, 73.59 0.64 M-1.27 92.65 C30.97 56.63, 63.78 20.41, 79.65 1.31 M0.77 90.61 C20.63 66.41, 42.77 41.61, 78.8 0.86 M-0.53 99.01 C27.76 63.5, 55.5 32.44, 83.97 0.83 M-0.27 96.93 C18.17 78.14, 36.57 57.27, 84.47 -0.29 M0.63 104.94 C34.94 67.27, 67.94 28.63, 91.34 0.3 M0.02 103.08 C21.17 79.18, 40.68 55.45, 89.55 -0.26 M-1.32 109.22 C28.58 79, 54.11 46.25, 96.02 -1.13 M0.08 110.74 C24.57 81.93, 49.94 51.02, 95.74 0.52 M-1.34 114.97 C29.17 80.02, 62.07 44.61, 99.37 -0.76 M-0.67 116.4 C36.29 74.43, 72.78 33.36, 99.99 0.34 M0.25 121.35 C21.42 97.66, 45.77 71.22, 104.47 1.33 M0.7 120.96 C41.69 76.01, 80.87 29.99, 106.69 -1.22 M-0.36 129.95 C30.16 92.98, 57.91 61.24, 110.12 1.94 M0.14 129.2 C37.12 86.73, 72.31 44.89, 112.16 0.48 M-1.08 132.8 C27.31 104.24, 53.37 74.61, 116.8 1.24 M0.43 133.61 C32.87 97.91, 64.8 60.52, 116.19 0.45 M1.38 142.26 C46.09 90.95, 88.51 38.86, 119.98 -1.35 M0.1 139.37 C31.85 102.57, 64.94 64.01, 121.83 0.01 M-0.54 147.48 C40.82 100.07, 84.56 51.36, 125.48 -1.15 M-0.15 146.71 C29.38 111.65, 57.37 77, 126.31 -0.28 M-1.09 152.09 C39.59 107.08, 81.59 57.68, 133.29 0.1 M0.12 151.66 C36.04 109.37, 74.18 65.22, 133.39 -0.21 M-1.76 158.53 C57.04 94.97, 110.98 31.4, 138 0.15 M-0.36 158.14 C37.54 112.44, 76.37 68.46, 137.41 0.57 M0.36 165.93 C42.05 118.59, 79.93 71.43, 144.57 -0.4 M0.06 165.13 C42.57 115.89, 85.69 66.07, 143.35 0.54 M-1.07 171.12 C55.56 106.33, 109.86 42.77, 149.52 -0.15 M0.06 171.14 C54.89 105.61, 112.35 40.65, 147.73 0.77 M1.57 176.82 C30.8 142.95, 62.3 103.58, 152.85 -1.19 M0.77 176.33 C30.53 138.8, 63.43 101.44, 154.36 0.4 M-0.09 181.79 C43.78 130.58, 90.33 78.16, 157.15 0 M0.34 182.94 C45.62 131.68, 90.56 79.63, 159.44 -0.19 M-0.83 188.88 C48.98 131.35, 100.85 73.1, 165.36 1.15 M-0.69 189.02 C57.17 122.94, 116.1 55.65, 163.63 -0.64 M-1.35 195.33 C35.9 150.54, 73.6 107.56, 170.31 0.25 M0.08 195.33 C40.9 150.03, 79.63 105.63, 168.95 0.85 M0.78 201.54 C67.63 124.26, 139.22 44.77, 175.83 0.49 M-0.89 201.62 C41.08 155.71, 79.76 111.43, 175.63 -0.19 M-0.81 207.01 C63.75 135.7, 126.23 62.86, 179.42 -0.1 M-0.47 207.56 C53.71 145.76, 108.46 84.83, 179.51 0.04 M-0.14 212.93 C56.55 147.36, 114.73 79.98, 186.43 -0.54 M0.04 212.9 C66.03 136.78, 133.49 59.76, 186.41 -0.73 M-0.07 218.28 C58.44 154.39, 114.89 89.01, 190.37 -0.58 M-0.44 219.73 C45.18 170.38, 89.09 120.09, 190.41 0.43 M-0.6 224.79 C58.59 155.81, 120.11 86.05, 196.11 0.71 M0.48 225.94 C51.36 165.67, 104.54 106.22, 196.01 -0.72 M1.34 231.5 C40.01 187.18, 82.4 139.45, 200.37 -1.13 M0.43 231.96 C76.57 140.86, 155.31 50.79, 201.18 -0.03 M1.86 235.98 C61.98 167.84, 122.3 97.93, 208.29 -0.23 M2.6 235.1 C60.87 165.75, 119.45 97.98, 207.15 -0.24 M8.59 235.06 C51.33 183.42, 97.75 128.94, 211.89 -0.74 M8.27 234.58 C54.16 180.86, 102.14 125.68, 212.27 0.03 M13.6 235.46 C86.21 149.52, 159.61 65.42, 217.68 -1.48 M12.61 235.8 C76.86 161, 142 85.47, 217.16 -0.04 M17.21 235.13 C69.6 177.37, 119.83 118.11, 222.37 1.29 M18.7 234.47 C64.24 179.87, 109.54 126.84, 222.89 0.14 M23.83 234.91 C75.69 174.66, 126.45 115.61, 229.06 0.45 M23.14 234.67 C87.07 162.83, 150.22 89.96, 227.56 -0.82 M29.62 233.71 C110.53 142.63, 189.03 51.53, 234.32 0.99 M29.75 234.05 C97.04 156.48, 165.42 78.04, 233.11 0.21 M35.31 234.36 C99.81 159.61, 167.47 84.14, 238.03 1.64 M33.45 234.59 C110.03 148.63, 184.69 62.74, 238.3 1.04 M38.83 236.61 C95.01 169.94, 149.77 106.8, 245.22 -0.26 M39.09 235.65 C106.29 158.1, 171.69 83.26, 243.17 -0.19 M45.8 236.36 C117.61 148.36, 191.97 64.07, 249.31 0.49 M44.33 235.28 C94.26 177.75, 142.92 120.65, 248.25 -0.23 M49.82 234.82 C118.81 153.73, 191.04 70.29, 254.76 -0.06 M50.45 235.07 C100.94 174.84, 152.39 115.99, 254.19 0.3 M55.24 235.89 C129.34 151.95, 201.83 67.42, 259.96 0.87 M56.08 235.37 C104.55 179.28, 153.86 122.63, 259.12 -0.27 M59.93 236.22 C101.84 185.94, 146.69 137.77, 266.2 0.77 M60.42 235.35 C140.52 141.62, 221.63 47.31, 264.61 -0.15 M67.18 236.15 C142.03 148.07, 217.28 61.85, 269.14 -0.91 M66.26 234.58 C130 161.67, 194.51 88.13, 270.22 0.23 M71.43 235.44 C121.57 177.11, 172.84 116.4, 276.39 -0.41 M71.75 235.96 C136.27 159.19, 202.41 82.73, 275.16 -0.17 M75.86 235.66 C117.88 186.39, 161.1 138.05, 281.77 0.37 M76.21 234.44 C152.24 144.68, 229.19 57.51, 281.41 -0.09 M80.94 235.98 C163.08 142.94, 243.55 48.59, 285.78 -0.89 M82 235.67 C123.54 187.66, 165.32 139.44, 286.77 -0.13 M87.74 235.44 C164.42 145.49, 243.75 58.26, 292.76 0.26 M87.42 234.7 C166.36 144, 245.07 54.6, 290.9 0.25 M92.22 234.55 C173.53 141.94, 252.33 50.44, 297 0.22 M92.84 234.66 C157.08 160.65, 221.51 86.71, 296.93 -0.05 M97.11 234.68 C172.05 149.18, 245.58 65.91, 302.78 0.34 M97.97 235.46 C150.31 176.47, 201.29 116.81, 301.74 0.62 M103.34 233.92 C168.04 158.02, 234.8 82.26, 307.67 0.58 M103.61 235.29 C168.61 159.71, 234.11 83.73, 307.6 -0.31 M107.6 235.06 C169.77 164.78, 227.91 93.44, 313.94 1.12 M108.97 235.06 C179.54 153.69, 249.81 72.85, 312.48 0.39 M113.82 235.74 C170.97 170.99, 228.4 104.04, 317.6 -1.1 M113.44 235.63 C157.93 185.43, 202.1 135.92, 318.77 -0.91 M119.29 233.58 C180.7 161.44, 245.79 90.62, 322.67 0.59 M119.57 235.07 C193.33 148.19, 268.74 62.74, 323.64 -0.35 M123.23 236.3 C183.2 168.6, 242.18 102.46, 330.19 -0.8 M124.85 234.49 C197.84 150.79, 271.46 66.2, 329.16 -0.75 M130.12 235.45 C208.05 145.17, 287.81 51.67, 332.55 1.34 M130.48 235.29 C188.54 165.34, 248.34 95.65, 334.11 -0.06 M135.4 236.51 C208.64 148.95, 286.57 61.15, 339.58 0.88 M134.47 234.97 C184.49 179.25, 232.28 123.43, 339.81 0.19 M140.21 235.49 C206 162.29, 266.6 90.74, 344.34 0.59 M140.46 234.43 C190.1 177.96, 238.22 122.32, 344.75 0.68 M145.65 234.75 C209.08 159.61, 272.37 87.88, 348.55 0.83 M145.15 235.18 C213.1 156.82, 280.27 80.24, 349.82 0.91 M150.4 233.86 C213.09 163.74, 275.01 90.43, 354.51 0.2 M151.31 235.18 C225.81 148.89, 300.3 62.4, 354.78 -0.17 M156.44 234.01 C219.41 166.5, 278.58 94.77, 361.16 0.44 M156.71 234.66 C202.88 184.93, 248.03 132.17, 359.74 -0.05 M160.22 235.37 C239.43 144.16, 319.35 50.68, 365.32 -0.52 M160.73 235.6 C204.57 186.43, 247.21 137.03, 365.38 0.41 M167.42 234.79 C215.2 176.82, 264.16 121.73, 371.67 0.12 M166.61 235.13 C226.18 165.32, 286.25 95.61, 371.16 0.62 M171.86 236.49 C223.58 174.89, 274.77 115.01, 377.55 -0.49 M171.45 235.45 C238.99 158.2, 307.05 79.87, 376.13 -0.29 M176.81 233.61 C235.23 169.56, 290.65 105.62, 380.02 0.61 M177.87 235.44 C226.89 178.45, 275.15 123.34, 381.49 0.14 M182.02 234.13 C258.24 151.04, 331.61 65.8, 386.36 -1.15 M182.22 235.69 C236.04 175.71, 288.78 115.46, 387.11 0.04 M188.57 235.92 C242.12 169.91, 297.72 109.41, 392.6 -0.64 M188.29 235.17 C254.9 155.81, 322.66 77.61, 392.61 -0.34 M191.64 235.5 C243.23 178.23, 291.04 120.77, 396.88 0.69 M192.65 234.76 C265.41 150.13, 340 64.55, 398.22 -0.58 M199.57 234.61 C257.57 166.44, 320.43 96.25, 403.67 0.64 M198.36 235.35 C275.67 146.34, 350.89 60.49, 402.98 0.69 M203.83 234.58 C246.34 187.14, 288.35 141.25, 408.57 -0.03 M203.2 235.72 C278.96 148.24, 356.64 60.12, 408.46 -0.52 M209.51 234.38 C282.75 149.88, 359.82 61.65, 413.96 -0.29 M209.08 234.86 C280.44 152.69, 350.67 72.93, 412.67 0.12 M213.86 236.39 C262.46 181, 306.97 127.38, 419.48 -0.88 M214.53 235.61 C269.49 172.43, 324.56 108.34, 419.49 0.41 M219.58 235.94 C285.35 159.51, 352.42 83.15, 423.48 1.52 M219.84 235.48 C290.31 154.07, 359.49 73.97, 424.04 -0.49 M224.87 235.58 C280.62 170.76, 338.3 108.18, 430.56 0.89 M225.3 234.67 C304.21 145.3, 383.51 55.25, 429.21 0.28 M230.98 234.64 C289.78 163.14, 351.07 94.56, 435.87 -0.86 M230.56 235.4 C282.08 174.39, 333.23 115, 433.92 0.04 M235.06 234.98 C308.39 151.49, 383.78 63.16, 441.31 -1.63 M235.76 235.65 C295.65 164.84, 355.71 95.35, 439.63 0.02 M240.64 236.17 C299.91 168.51, 357.02 100.32, 445.48 1.02 M240.94 234.26 C300.32 167.16, 357.45 101.57, 445.74 0.42 M244.75 235.62 C306.57 164.48, 368.09 92.06, 451.29 -0.71 M245.64 234.56 C314.07 156.53, 381.03 79, 450.41 -0.14 M251.23 235.12 C330.28 147.22, 406.68 57.58, 455.97 0.94 M251.24 235.28 C295.85 181.93, 341.61 129.88, 455.93 0.44 M257.87 235.28 C330.66 149.56, 406.81 62.39, 461.49 -1.18 M256.25 235.59 C314.15 166.86, 373.26 100.63, 461.01 0.05 M261.16 233.54 C322.54 163.48, 386.02 90.98, 467.46 -0.57 M262.94 234.55 C337.65 149.44, 411.71 63.52, 466.11 0.26 M266.25 235.68 C346.65 140.1, 429.17 48.1, 472.29 -1.04 M266.93 234.75 C328.05 167.13, 385.82 99.42, 470.8 0.87 M271.07 234.6 C333.7 160.76, 396.92 87.68, 477.94 -0.49 M271.69 235.35 C315.99 185.11, 359.78 133.34, 476.64 -0.3 M276.72 235.26 C345.31 158.42, 412.87 80.29, 481.74 1.21 M278.6 234.84 C345.2 156.37, 412.77 79.12, 482.31 0.38 M282.15 235.23 C339.57 173.6, 393.35 110.11, 487.59 -0.47 M283.46 235.87 C360.46 145.78, 437.7 57.38, 487.32 0.36 M289.7 236.4 C340 176.96, 389.3 118.17, 491.68 1.09 M288.8 234.75 C360.91 152.83, 431.14 71.46, 492.38 -0.41 M293.64 234.98 C367.29 149.03, 443.74 62.75, 497.28 0.3 M294.24 235.83 C344.65 177.17, 395.73 119.16, 498.12 -0.78 M300.64 235.36 C364.37 160.73, 427.46 85.31, 503.21 0.84 M299.51 234.46 C369.26 155.88, 439.2 76.6, 504 0.23 M304.04 234.39 C352.85 179.51, 400.77 123.71, 510.09 0.86 M304.75 235.66 C372.82 156.84, 440.46 77.45, 508.47 -0.66 M310.02 235.19 C370.77 164.73, 430.21 96.1, 514.58 0.19 M309.29 234.29 C359.21 179.2, 407.75 122.91, 513.56 0.45 M314.74 234.35 C356.74 185.62, 397.53 138.1, 518.39 -0.16 M314.81 235.08 C383.44 155.79, 453.85 76.37, 519.38 -0.85 M321.91 235.69 C398.31 145.83, 477.28 56.39, 525.48 0.62 M321.2 234.24 C369.18 178.12, 418.71 120.98, 524.4 -0.15 M325.69 234.64 C373.5 178.07, 426.24 122.01, 531 -0.22 M325.49 235.24 C381.02 171.4, 437.45 106.51, 529.91 0.3 M331.11 234.84 C408.17 145.14, 485.63 54.24, 535.64 1.09 M330.56 234.67 C393.6 163.33, 453.97 91.86, 534.66 0.17 M336.9 235.38 C386.68 178.34, 437.44 118.19, 540.33 0 M335.51 235.17 C407.52 153.25, 478.99 72.82, 540.7 -0.19 M341.73 235.98 C412.78 155.53, 484.23 74.6, 546.24 -0.53 M341.46 234.16 C384.69 185.51, 427.57 136.82, 545.16 0.32 M346.96 235.62 C410.78 162.67, 474.82 86.52, 552.39 0.85 M346.26 235.33 C400.49 174.46, 454.42 112.25, 551.84 -0.63 M351.47 234.91 C416.73 163.04, 479.51 88.24, 555.63 -0.31 M351.71 234.52 C416.75 161.46, 479.96 89.09, 555.81 -0.08 M357.32 234.71 C416.11 165.04, 474.8 99.01, 562.51 -0.54 M356.81 235.49 C426.87 154.52, 496.86 74.65, 562.17 0.3 M361.64 235.62 C442.25 143.74, 524.13 50.85, 566.44 -1.16 M363.59 234.37 C404.73 184.33, 447 135.05, 567.77 0.05 M368.05 233.75 C411.68 184.31, 456.17 130.78, 567.99 6.51 M367.46 235.43 C444.95 144.84, 522.5 55.78, 566.92 6.82 M372.81 234.59 C425.1 175.55, 476.51 115.46, 568.04 12.18 M373.09 234.07 C425.68 175.51, 474.82 118.5, 567.94 11.7 M379.27 234.24 C436.64 165.38, 495.61 97.3, 568.37 18.25 M379.08 235.65 C423.53 184.08, 467.07 134.49, 567.32 18.76 M383.51 233.56 C440.19 171.1, 493.08 109.69, 566.3 23.95 M383.53 235.23 C431.59 180.93, 478.34 127.12, 566.76 24.68 M389.57 233.64 C451.64 163.08, 513.54 92.66, 568.6 31.2 M389.35 235.18 C455.5 157.67, 522.66 80.95, 567.24 31.16 M393.75 236.47 C429.56 196.6, 464.86 154.58, 568 37.41 M394.28 236.05 C456.05 162, 520.21 87.93, 567.27 36.35 M400.63 235.84 C443.36 184.34, 489.23 131.66, 566.7 43.76 M399.45 235.34 C455.99 169.45, 513.58 102.19, 567.7 42.39 M406.46 235.13 C436.87 198.48, 468.48 160.18, 568.16 49.35 M405.19 234.99 C469.07 163.09, 532.11 90.92, 566.54 49.54 M409.34 234.01 C444.25 197.09, 478.61 156.68, 566.3 55.3 M410.5 234.31 C466.42 170.95, 522.69 106.07, 567.52 54.38 M415.2 234.14 C456.24 190.12, 493.61 144.29, 565.8 62.41 M415.02 234.93 C459.24 183.59, 502.14 133.81, 566.5 60.64 M422.6 234.55 C460.81 188.28, 502.83 140.93, 568.3 68.87 M420.95 234.36 C455.3 197.07, 489.4 158, 566.66 67.92 M424.84 233.89 C460.24 197.75, 490.86 160.92, 565.83 73.86 M426.79 236.09 C464.84 191.42, 502.66 149.23, 566.37 73.46 M432.18 236.29 C478.26 179.19, 527.67 126.76, 567.78 79.75 M432.37 234.51 C471.36 190.59, 511.41 145.06, 566.43 80.21 M436.36 236.24 C478.89 184.71, 522.59 135.41, 566.54 84.62 M435.94 235.61 C472.51 192.4, 510.11 149.83, 567.75 84.1 M443.6 234.59 C471.53 200.06, 501.66 165.91, 565.18 91.96 M441.62 234.56 C475.77 198.15, 508.7 159.87, 566.34 91.99 M448.34 234.93 C480.09 196.97, 511.51 159.94, 567.59 99.05 M447.15 235.26 C491.02 186.79, 534.33 136.82, 567.74 98.7 M453.3 234.21 C477.7 206.06, 501.35 174.44, 569.14 102.83 M452.77 234.35 C495.31 185.6, 538.2 136.29, 568.04 103.57 M457.69 236.58 C490.55 193.31, 525.66 157.24, 566.1 107.92 M458.82 235.83 C485.32 201.33, 513.29 168.79, 567.74 110.44 M465.69 233.1 C489.37 207.06, 511.9 177.74, 565.54 117.03 M462.9 234.67 C490.84 205.2, 516.15 174.36, 567.17 115.05 M470.55 235.45 C510.36 190.14, 549.42 143.51, 567.42 122.64 M469.45 235.53 C507.26 191.56, 545.71 146.06, 567.06 122.72 M475.15 235.55 C504.29 203.61, 529.52 169, 566.49 129.45 M474.8 234.35 C495.12 209.54, 515.92 184.96, 566.02 127.73 M480.07 235.31 C500.71 208.3, 521.96 184.32, 565.61 134.32 M478.82 235.08 C508.6 201.15, 536.88 168.23, 566.38 133.22 M484.12 234.28 C512.18 204.65, 539.95 173.04, 567.13 140.19 M483.96 235.26 C502.23 213.33, 522.44 191.86, 567.08 140.14 M488.45 235.37 C508.68 212.04, 527.34 192.03, 568.76 144.53 M490.9 234.73 C511.56 207.97, 533.61 183.73, 568.12 145.61 M497.06 236.51 C515.4 215.97, 529.28 195.16, 567.65 153.05 M495.61 235.26 C516.42 211.01, 536.99 186.88, 566.12 151.61 M500.91 236.33 C523.65 208.16, 549.72 178.53, 568.32 160.08 M500.94 235.22 C516.62 216.77, 533.51 197.24, 566.78 159.35 M505.8 234.65 C523.25 214.13, 544.15 190.38, 565.94 162.57 M505.07 235.98 C520.12 219.6, 534.42 203.02, 567.78 164.22 M511.72 234.34 C527.55 219.54, 540.71 203.34, 567.75 171.98 M510.39 234.82 C523.05 220.24, 534.13 207.5, 566.58 171.65 M518.18 237.35 C526.65 219.9, 538.97 205.94, 566.91 176.75 M515.36 234.83 C526.52 222.62, 538.58 210.3, 567.94 176.56 M522.15 235.03 C535.46 219.52, 549.82 204.19, 568.58 181.96 M521.95 234.32 C538.29 215.58, 555.05 195.14, 566.47 182.99 M528.1 235.96 C536.95 224.21, 542.28 216.31, 567.84 187.81 M526.25 234.48 C541.39 219.29, 555.12 201.95, 566.07 189.5 M530.53 235.5 C538.82 226.47, 547.51 217.59, 567.01 193.49 M532.55 234.02 C544.11 220.96, 556.52 207.32, 567.82 195.11 M536.13 235.57 C547.68 226.22, 553.89 217.2, 567.02 203.19 M537.93 234.86 C545.75 224.34, 555.21 215.54, 566.84 202.16 M542.21 234.3 C547.35 228.28, 552.76 223.31, 567.29 206.48 M542.35 234.73 C550.1 226.68, 558.25 217.35, 566.73 206.77 M546.89 233.72 C557.45 228.02, 562.38 216.03, 565.81 212.05 M547.28 234.91 C553.02 229.13, 559.12 222.61, 567.17 213.45 M555.57 233.47 C556.29 232.83, 561.53 227.95, 567.03 220.09 M553.76 234.79 C557.95 229.75, 560.82 225.85, 566.35 219.51 M558.92 234.72 C561.28 232.79, 564.21 229.71, 568.54 224.67 M558.88 235.48 C560.93 233.21, 563.32 230.72, 567.65 225.81 M564.29 235.19 C564.81 233.98, 565.99 233.21, 566.75 231.8 M564.36 234.89 C565.1 233.88, 565.96 233.31, 566.9 231.79" stroke="#82c91e" stroke-width="0.5" fill="none"></path><path d="M0.13 0.19 C133.81 0.16, 266.6 0.22, 567.53 -0.22 M0.3 0.35 C219.76 1.64, 439.04 2.27, 567.32 -0.01 M566.73 -1.45 C564.36 55.01, 566.33 109.71, 566.66 234.03 M566.5 0.8 C567.86 89.27, 568.27 177.17, 567.74 232.73 M567.66 233.29 C403.93 231.82, 240.27 231.86, 0.43 232.9 M567.07 233.28 C384.5 232.93, 202.57 233.26, -0.05 233.13 M0.44 231.48 C-2.93 141.4, -1.12 53.7, -1.01 -1.49 M0.8 232.28 C-1.52 181.41, -2.08 129.16, 0 -0.33" stroke="#5c940d" stroke-width="1" fill="none"></path></g><g stroke-linecap="round"><g transform="translate(338 102) rotate(0 -16.589705683775264 16.186938485093435)"><path d="M-0.84 0.08 C-6.72 5.79, -28.56 27.71, -34.11 33.29 M0.93 -0.92 C-4.7 4.49, -26.52 25.92, -31.97 31.32" stroke="#c92a2a" stroke-width="4" fill="none"></path></g></g><g stroke-linecap="round"><g transform="translate(300 97) rotate(0 25.558955595158068 23.73112295925617)"><path d="M-0.24 0.75 C8.75 8.43, 44.41 38.35, 52.94 46.23 M-1.82 0.1 C7.18 7.91, 43.31 39.67, 52.48 47.36" stroke="#c92a2a" stroke-width="4" fill="none"></path></g></g><g stroke-linecap="round"><g transform="translate(321.34065170276585 398.10732644570226) rotate(0 -5.037819080898203 4.937996631214048)"><path d="M-0.93 -0.28 C-2.74 1.27, -8.75 8.14, -10.26 10.19 M0.79 -1.48 C-1.18 0.14, -9.03 9.4, -10.86 11.35" stroke="#c92a2a" stroke-width="4" fill="none"></path></g></g><g stroke-linecap="round"><g transform="translate(309 395.5) rotate(0 9.26252712347582 8.22555148980257)"><path d="M-0.28 0.65 C2.32 3.56, 13.37 14.05, 16.47 16.5 M1.77 -0.05 C4.68 2.61, 16.08 12.11, 18.81 14.89" stroke="#c92a2a" stroke-width="4" fill="none"></path></g></g><g transform="translate(225 423) rotate(0 161.5 12.5)"><text x="0" y="18" font-family="Virgil, Segoe UI Emoji" font-size="20px" fill="#c92a2a" text-anchor="start" style="white-space: pre;" direction="ltr">Who knows or cares (too fragile)</text></g></svg>